<?xml version="1.0" encoding="UTF-8"?>
<svg version="1.1" xmlns="http://www.w3.org/2000/svg" width="100" height="100">
<path d="M0,0 L8,0 L8,1 L11,1 L11,2 L12,2 L12,3 L14,3 L14,4 L15,4 L15,5 L16,5 L16,7 L17,7 L17,8 L18,8 L18,11 L19,11 L19,20 L18,20 L18,21 L22,21 L22,22 L24,22 L24,23 L25,23 L25,24 L26,24 L26,25 L27,25 L27,27 L28,27 L28,29 L29,29 L29,31 L30,31 L30,37 L31,37 L31,43 L30,43 L30,45 L29,45 L29,46 L26,46 L26,45 L24,45 L24,43 L23,43 L23,42 L22,42 L22,40 L21,40 L21,43 L20,43 L20,47 L19,47 L19,48 L14,48 L14,47 L12,47 L12,46 L11,46 L11,45 L10,45 L10,44 L9,44 L9,43 L8,43 L8,42 L5,42 L5,43 L2,43 L2,44 L-1,44 L-1,45 L-2,45 L-2,46 L-3,46 L-3,47 L-4,47 L-4,48 L-5,48 L-5,49 L-10,49 L-10,47 L-11,47 L-11,36 L-10,36 L-10,33 L-9,33 L-9,29 L-8,29 L-8,27 L-7,27 L-7,25 L-8,25 L-8,23 L-9,23 L-9,22 L-10,22 L-10,19 L-11,19 L-11,11 L-10,11 L-10,8 L-9,8 L-9,7 L-8,7 L-8,5 L-7,5 L-7,4 L-6,4 L-6,3 L-4,3 L-4,2 L-3,2 L-3,1 L0,1 Z M1,2 L1,3 L-2,3 L-2,4 L-3,4 L-3,5 L-5,5 L-5,6 L-6,6 L-6,8 L0,8 L0,10 L1,10 L1,12 L2,12 L2,19 L1,19 L1,20 L0,20 L0,21 L-1,21 L-1,22 L-6,22 L-6,24 L-4,24 L-4,25 L-3,25 L-3,26 L-2,26 L-2,27 L1,27 L1,28 L7,28 L7,27 L10,27 L10,26 L11,26 L11,25 L13,25 L13,24 L14,24 L14,22 L15,22 L15,21 L16,21 L16,19 L15,19 L15,20 L13,20 L13,21 L9,21 L9,20 L8,20 L8,19 L6,19 L6,18 L5,18 L5,12 L6,12 L6,11 L7,11 L7,10 L8,10 L8,9 L13,9 L13,8 L14,8 L14,6 L13,6 L13,5 L11,5 L11,4 L10,4 L10,3 L7,3 L7,2 Z M-7,8 L-7,9 L-6,9 L-6,8 Z M14,8 L14,9 L15,9 L15,8 Z M15,9 L15,10 L16,10 L16,9 Z M8,10 L8,11 L9,11 L9,10 Z M16,16 L16,18 L17,18 L17,16 Z M16,23 L16,25 L15,25 L15,26 L14,26 L14,27 L12,27 L12,28 L11,28 L11,29 L8,29 L8,30 L0,30 L0,29 L-3,29 L-3,28 L-5,28 L-5,29 L-6,29 L-6,31 L-7,31 L-7,34 L-8,34 L-8,38 L-9,38 L-9,45 L-8,45 L-8,47 L-6,47 L-6,45 L-5,45 L-5,44 L-4,44 L-4,43 L-2,43 L-2,42 L0,42 L0,41 L3,41 L3,40 L10,40 L10,41 L11,41 L11,42 L12,42 L12,43 L13,43 L13,44 L14,44 L14,45 L16,45 L16,46 L17,46 L17,45 L18,45 L18,42 L19,42 L19,38 L21,38 L21,37 L24,37 L24,40 L25,40 L25,42 L26,42 L26,43 L28,43 L28,42 L29,42 L29,38 L28,38 L28,32 L27,32 L27,30 L26,30 L26,28 L25,28 L25,27 L24,27 L24,26 L23,26 L23,25 L22,25 L22,24 L21,24 L21,23 Z " fill="#000000" transform="translate(43,31)"/>
<path d="M0,0 L1,0 L1,1 L2,1 L2,2 L1,2 L1,5 L0,5 L0,6 L-3,6 L-3,2 L-2,2 L-2,1 L0,1 Z " fill="#FFFFFF" transform="translate(39,41)"/>
<path d="M0,0 L4,0 L4,3 L2,3 L2,4 L1,4 L1,5 L-1,5 L-1,1 L0,1 Z " fill="#FFFFFF" transform="translate(52,42)"/>
<path d="M0,0 L3,0 L3,1 L0,1 Z " fill="#000000" transform="translate(45,54)"/>
</svg>
